<svg width="123" height="26" viewBox="0 0 123 26" fill="none" xmlns="http://www.w3.org/2000/svg">
<path d="M108.953 10C106.729 10 104.543 11.3896 102.857 12.8507C103.279 13.3115 103.682 13.7898 104.063 14.2845C104.244 14.5231 104.508 14.8458 104.834 15.2116C106.133 14.0722 107.66 13.0631 108.953 13.0631C111.15 13.0631 112.937 14.85 112.937 17.047C112.937 19.2439 111.15 21.0308 108.953 21.0308C106.496 21.0308 103.189 17.398 102.224 16.124C101.751 15.4975 97.4713 10 93.048 10C89.1619 10 86 13.1619 86 17.048C86 20.9341 89.1619 24.095 93.048 24.095C95.2081 24.095 97.3294 22.7831 98.9944 21.3683C98.5309 20.8692 98.0907 20.3491 97.6752 19.8094C97.4654 19.5369 97.2467 19.2716 97.0193 19.0137C95.7537 20.0985 94.2926 21.0308 93.048 21.0308C90.8511 21.0308 89.0641 19.2439 89.0641 17.047C89.0641 14.85 90.8511 13.0631 93.048 13.0631C95.5056 13.0631 98.8125 16.6959 99.7775 17.9699C100.251 18.5964 104.53 24.0939 108.953 24.0939C110.821 24.092 112.613 23.3489 113.934 22.0277C115.255 20.7066 115.998 18.9153 116 17.047C115.998 15.1785 115.255 13.387 113.934 12.0658C112.613 10.7447 110.822 10.0017 108.953 10Z" fill="#00AEFF"/>
<path d="M1.8 4.624V5.608H2.016V4.864H8.808V24.736H8.088V25H12.888V24.736H12.144V4.864H18.864V5.608H19.08V4.624H1.8ZM26.2817 22.816C25.1537 24.04 23.6417 24.784 21.9137 24.784C19.2497 24.784 19.2257 20.584 19.2257 19.048C19.2257 17.128 19.7057 13.24 21.9137 13.24C23.6417 13.24 25.1537 13.96 26.2817 15.184V22.816ZM29.9057 13.216V13H25.7537V13.216H26.2817V14.872C25.1537 13.72 23.6177 13.024 21.9137 13.024C21.5537 13.024 21.2657 13.072 20.7137 13.192C17.9297 13.768 15.9377 16.216 15.9377 19.024C15.9377 21.784 17.8337 24.184 20.7617 24.88C21.1697 24.952 21.5297 25 21.9137 25C23.6417 25 25.1537 24.304 26.2817 23.128V24.76H25.7537V24.976H29.9057V24.76H29.3777V13.216H29.9057ZM35.3693 4.816H35.9213V4.6H31.7693V4.816H32.3213V24.76H31.7693V25H35.9213V24.76H35.3693V4.816ZM49.4406 19.096C49.4166 18.136 49.3206 17.728 49.2246 17.416C48.5766 15.04 46.6566 13.576 44.4726 13.072C44.1126 13.024 43.7766 13 43.4646 13C43.2726 13 43.0326 13.024 42.8166 13.048C42.6966 13.072 42.5766 13.072 42.4566 13.072C39.4086 13.696 37.4406 16.192 37.4406 18.976C37.4406 21.76 39.3126 24.184 42.0006 24.832C42.2886 24.904 43.0086 25 43.4646 25C45.5766 25 47.4726 23.944 48.6246 22.048H48.3606C47.3046 23.8 45.4806 24.784 43.4646 24.784C40.8966 24.784 40.7526 20.704 40.7526 19.096H46.1526H49.4406ZM40.7526 18.904C40.8486 17.344 41.0166 16.24 41.3766 15.112C41.4006 15.136 41.9046 13.384 43.1766 13.216H43.4646H43.7286C44.5206 13.312 45.0246 14.008 45.2886 14.56C45.8406 15.808 46.1286 17.296 46.1286 18.904H40.7526ZM63.6459 24.784V18.568C63.4539 15.568 61.3419 13.096 58.2939 13.096C56.8779 13.096 55.5819 13.648 54.6459 14.584V13.264H55.1739V13.024H50.9499V13.264H51.4779V24.808H50.9499V25H55.1739V24.808H54.6459V14.848C55.5339 13.912 56.8539 13.312 58.2939 13.312C60.3579 13.312 60.6459 16.624 60.7179 17.968V24.784H60.1899V25H64.2219V24.784H63.6459ZM71.7782 12.28V12.736H68.7062V8.368H69.2342V8.176H65.1542V8.368H65.6582V20.992H65.6822C65.6822 23.224 67.1222 25 68.8502 25C70.3382 25 71.6342 23.512 71.8982 21.496H71.7062C71.5382 22.72 70.9622 23.584 70.2902 23.584C69.4502 23.584 68.7062 22.336 68.7062 20.92V12.928H71.7782V13.36H71.9942V12.28H71.7782ZM80.4861 14.536H77.2941V4.864H80.5101C83.6541 6.856 84.0141 13 80.4861 14.536ZM80.8221 4.648H73.3821V4.864H74.0781V24.736H73.3821V25H77.8461V24.736H77.2941V14.776H80.4861C87.4221 15.064 87.6861 4.744 80.8221 4.648Z" fill="white"/>
<path d="M121.088 5.816H121.64V5.6H117.488V5.816H118.04V25.76H117.488V26H121.64V25.76H121.088V5.816Z" fill="white"/>
</svg>
